<svg xmlns="http://www.w3.org/2000/svg" viewBox="0 0 64 64" role="img" aria-label="Power Plant"><clipPath id="tk"><circle cx="32.24" cy="32.06" r="29.33"/></clipPath><g clip-path="url(#tk)"><path fill="#ffde18" d="M61.58 32.06C61.58 48.26 48.44 61.4 32.24 61.4C16.04 61.4 2.91 48.26 2.91 32.06C2.91 15.86 16.04 2.73 32.24 2.73C48.44 2.73 61.58 15.86 61.58 32.06"/><path fill="#030505" stroke="#030505" stroke-width="0.25" d="M6.34 44.17L8.38 44.17L8.38 39.93L10.72 39.93L10.72 34.93L13.15 34.93L13.15 21.2L14.09 21.2L14.09 34.93L14.99 34.93L14.99 40.97C14.99 40.97 19.6 26.55 17.49 11.96L34.18 11.96C32.07 26.55 36.68 40.97 36.68 40.97L37.49 42.67C37.49 42.67 40.08 32.59 38.36 24.61L50.5 24.61C48.78 32.59 51.1 40.63 51.1 40.63L52.23 40.63L52.23 28.32L52.98 28.32L52.98 40.63L53.96 40.63L53.96 32.53L54.8 32.53L54.8 40.62L55.89 40.62L55.89 36.36L57.3 36.36L57.3 30.71L58.33 30.71L58.33 36.34L60.52 36.34L62.49 38.7L59.95 41.84L58.89 52.05L42.06 62.07L27.24 62.87L17.63 60.47L1.6 47.65L6.34 44.17"/><path fill="#ffde18" d="M11.6 36.29H14.1V37.08H11.6Z"/><path fill="none" stroke="#030505" stroke-width="0.25" d="M11.6 36.29H14.1V37.08H11.6Z"/><path fill="#fbb040" stroke="#231f20" stroke-width="0.76" d="M33.25 43.18L26.94 42.55L27.77 37.86C27.91 36.95 26.8 36.39 26.15 37.04L17.04 46.15C16.44 46.75 16.87 47.78 17.72 47.78L24.03 48.41L23.2 53.1C23.06 54.01 24.16 54.57 24.82 53.92L33.92 44.81C34.52 44.21 34.1 43.18 33.25 43.18"/></g></svg>
